# xmcd CD Database Entry
#
# Track frame offsets:
# 207
# 16435
# 40632
# 56735
# 70695
# 97075
# 131690
# 145062
# 157342
# 169787
# 196032
#
# Disc length: 2626 seconds
#
# Revision: 3
# Processed by: cddbd v1.4PL0 Copyright (c) Steve Scherf et al.
# Submitted via: tcd 2.0b
#
DISCID=970a400b
DTITLE=Davy Spillane - Atlantic Bridge
DYEAR=1900
DGENRE=
TTITLE0=Davy's Reels
TTITLE1=Atlantic Bridge
TTITLE2=Daire's Dream
TTITLE3=Tribute To Johnny Doran
TTITLE4=O'Neill's Statement
TTITLE5=By The River Of Gems
TTITLE6=Sliverish
TTITLE7=The Pigeon On The Gate
TTITLE8=In My Life
TTITLE9=Landsdowne Blues
TTITLE10=Davy's Surprise Guitar
EXTD=
EXTT0=
EXTT1=
EXTT2=
EXTT3=
EXTT4=
EXTT5=
EXTT6=
EXTT7=
EXTT8=
EXTT9=
EXTT10=
PLAYORDER=
